<svg width="390" height="128" viewBox="0 0 390 128" fill="none" xmlns="http://www.w3.org/2000/svg">
<g filter="url(#filter0_d_306_974)">
<path d="M386.721 108.387C475.362 62.8845 486.262 -21.6398 395.5 31C304.738 83.6399 13 16.5 -4.99999 41.6948C-23 66.8895 -23 95 -5.00003 81.5C13 68 298.081 153.889 386.721 108.387Z" fill="url(#paint0_linear_306_974)"/>
<path d="M386.721 108.387C475.362 62.8845 486.262 -21.6398 395.5 31C304.738 83.6399 13 16.5 -4.99999 41.6948C-23 66.8895 -23 95 -5.00003 81.5C13 68 298.081 153.889 386.721 108.387Z" fill="url(#paint1_linear_306_974)"/>
</g>
<defs>
<filter id="filter0_d_306_974" x="-28.5" y="0.292847" width="497.089" height="127.517" filterUnits="userSpaceOnUse" color-interpolation-filters="sRGB">
<feFlood flood-opacity="0" result="BackgroundImageFix"/>
<feColorMatrix in="SourceAlpha" type="matrix" values="0 0 0 0 0 0 0 0 0 0 0 0 0 0 0 0 0 0 127 0" result="hardAlpha"/>
<feOffset dy="-4"/>
<feGaussianBlur stdDeviation="5"/>
<feComposite in2="hardAlpha" operator="out"/>
<feColorMatrix type="matrix" values="0 0 0 0 0.682353 0 0 0 0 0.737255 0 0 0 0 0.8 0 0 0 0.2 0"/>
<feBlend mode="normal" in2="BackgroundImageFix" result="effect1_dropShadow_306_974"/>
<feBlend mode="normal" in="SourceGraphic" in2="effect1_dropShadow_306_974" result="shape"/>
</filter>
<linearGradient id="paint0_linear_306_974" x1="214.273" y1="53.0704" x2="211.793" y2="107.724" gradientUnits="userSpaceOnUse">
<stop stop-color="#A59E66"/>
<stop offset="0.955642" stop-color="#7A7648"/>
</linearGradient>
<linearGradient id="paint1_linear_306_974" x1="214.273" y1="53.0704" x2="211.793" y2="107.724" gradientUnits="userSpaceOnUse">
<stop stop-color="#AEBCCC"/>
<stop offset="1" stop-color="#6686A5"/>
</linearGradient>
</defs>
</svg>
