<svg width="1920" height="250" viewBox="0 0 1920 250" fill="none" xmlns="http://www.w3.org/2000/svg">
<g filter="url(#filter0_d_218_3057)">
<path d="M1916.5 193C2149.5 338.482 2143 77.1981 1916.5 17.5001C1690 -42.1978 176.499 192.929 -4.50079 63.5003C-185.501 -65.9288 -507.001 177.385 -4.50089 177.385C497.999 177.385 1683.5 47.5182 1916.5 193Z" fill="url(#paint0_linear_218_3057)"/>
<path d="M1916.5 193C2149.5 338.482 2143 77.1981 1916.5 17.5001C1690 -42.1978 176.499 192.929 -4.50079 63.5003C-185.501 -65.9288 -507.001 177.385 -4.50089 177.385C497.999 177.385 1683.5 47.5182 1916.5 193Z" fill="url(#paint1_linear_218_3057)"/>
</g>
<defs>
<filter id="filter0_d_218_3057" x="-283.719" y="0.597412" width="2382.54" height="248.881" filterUnits="userSpaceOnUse" color-interpolation-filters="sRGB">
<feFlood flood-opacity="0" result="BackgroundImageFix"/>
<feColorMatrix in="SourceAlpha" type="matrix" values="0 0 0 0 0 0 0 0 0 0 0 0 0 0 0 0 0 0 127 0" result="hardAlpha"/>
<feOffset dy="3"/>
<feGaussianBlur stdDeviation="5"/>
<feComposite in2="hardAlpha" operator="out"/>
<feColorMatrix type="matrix" values="0 0 0 0 0.682353 0 0 0 0 0.737255 0 0 0 0 0.8 0 0 0 0.25 0"/>
<feBlend mode="normal" in2="BackgroundImageFix" result="effect1_dropShadow_218_3057"/>
<feBlend mode="normal" in="SourceGraphic" in2="effect1_dropShadow_218_3057" result="shape"/>
</filter>
<linearGradient id="paint0_linear_218_3057" x1="1030" y1="217.016" x2="951.178" y2="-135.94" gradientUnits="userSpaceOnUse">
<stop stop-color="#667BA5"/>
<stop offset="0.955642" stop-color="#1E2A42"/>
</linearGradient>
<linearGradient id="paint1_linear_218_3057" x1="1079.94" y1="56.4839" x2="1076.73" y2="191.234" gradientUnits="userSpaceOnUse">
<stop stop-color="#AEBCCC"/>
<stop offset="1" stop-color="#6686A5"/>
</linearGradient>
</defs>
</svg>
