<svg width="1920" height="364" viewBox="0 0 1920 364" fill="none" xmlns="http://www.w3.org/2000/svg">
<g filter="url(#filter0_d_218_3057)">
<path d="M1916.64 296C2149.69 477.788 2143.19 149.596 1916.65 75.0001C1690.1 0.404152 176.305 212.729 -4.72986 51.0001C-185.765 -110.729 -507.328 234 -4.72983 234C497.868 234 1683.6 114.212 1916.64 296Z" fill="url(#paint0_linear_218_3057)"/>
<path d="M1916.64 296C2149.69 477.788 2143.19 149.596 1916.65 75.0001C1690.1 0.404152 176.305 212.729 -4.72986 51.0001C-185.765 -110.729 -507.328 234 -4.72983 234C497.868 234 1683.6 114.212 1916.64 296Z" fill="url(#paint1_linear_218_3057)"/>
</g>
<defs>
<filter id="filter0_d_218_3057" x="-284" y="0.825684" width="2383" height="362.305" filterUnits="userSpaceOnUse" color-interpolation-filters="sRGB">
<feFlood flood-opacity="0" result="BackgroundImageFix"/>
<feColorMatrix in="SourceAlpha" type="matrix" values="0 0 0 0 0 0 0 0 0 0 0 0 0 0 0 0 0 0 127 0" result="hardAlpha"/>
<feOffset dy="3"/>
<feGaussianBlur stdDeviation="5"/>
<feComposite in2="hardAlpha" operator="out"/>
<feColorMatrix type="matrix" values="0 0 0 0 0.682353 0 0 0 0 0.737255 0 0 0 0 0.8 0 0 0 0.25 0"/>
<feBlend mode="normal" in2="BackgroundImageFix" result="effect1_dropShadow_218_3057"/>
<feBlend mode="normal" in="SourceGraphic" in2="effect1_dropShadow_218_3057" result="shape"/>
</filter>
<linearGradient id="paint0_linear_218_3057" x1="1029.97" y1="277.68" x2="910.117" y2="-151.914" gradientUnits="userSpaceOnUse">
<stop stop-color="#667BA5"/>
<stop offset="0.955642" stop-color="#1E2A42"/>
</linearGradient>
<linearGradient id="paint1_linear_218_3057" x1="1079.92" y1="77.0865" x2="1074.91" y2="245.41" gradientUnits="userSpaceOnUse">
<stop stop-color="#AEBCCC"/>
<stop offset="1" stop-color="#6686A5"/>
</linearGradient>
</defs>
</svg>
